<svg width="445" height="186.201" viewBox="0 0 445 186.201" xmlns="http://www.w3.org/2000/svg"><g id="svgGroup" stroke-linecap="round" fill-rule="evenodd" font-size="9pt" stroke="#000" stroke-width="0" fill="#ffffff" style="stroke:#000;stroke-width:0;fill:#ffffff"><path d="M 211.2 138.2 L 209.8 143 L 209.8 100.8 L 213 103.6 L 182.4 103.6 Q 179 103.6 176.7 101.3 A 7.723 7.723 0 0 1 174.401 95.706 A 9.975 9.975 0 0 1 174.4 95.6 Q 174.4 92.2 176.7 89.9 A 7.723 7.723 0 0 1 182.294 87.601 A 9.975 9.975 0 0 1 182.4 87.6 L 218.8 87.6 A 8.757 8.757 0 0 1 221.494 87.996 A 7.104 7.104 0 0 1 224.6 90 Q 226.8 92.4 226.8 95.8 L 226.8 142 Q 226.8 144.4 225.7 146.2 Q 224.6 148 222.8 149.2 A 83.034 83.034 0 0 1 204.927 157.824 A 93.344 93.344 0 0 1 202.9 158.5 Q 192 162 180.2 162 Q 164.8 162 151.7 156.5 Q 138.6 151 128.7 141.2 Q 118.8 131.4 113.3 118.3 A 71.571 71.571 0 0 1 107.849 92.832 A 82.435 82.435 0 0 1 107.8 90 Q 107.8 74.6 113.3 61.5 Q 118.8 48.4 128.7 38.6 Q 138.6 28.8 151.7 23.4 A 72.496 72.496 0 0 1 175.444 18.132 A 84.91 84.91 0 0 1 180.2 18 Q 190.4 18 199.9 20.3 A 60.336 60.336 0 0 1 214.721 25.961 A 55.808 55.808 0 0 1 217.2 27.4 Q 219.2 28.4 220.1 30.2 Q 221 32 221 34 Q 221 37.4 218.7 39.8 Q 216.4 42.2 213.4 42.2 Q 212.2 42.2 211.1 41.8 Q 210 41.4 208.8 41 Q 202.6 37.8 195.4 35.9 A 58.516 58.516 0 0 0 182.188 34.03 A 66.138 66.138 0 0 0 180.2 34 A 57.756 57.756 0 0 0 162.385 36.678 A 51.561 51.561 0 0 0 151.9 41.4 Q 139.4 48.8 132.2 61.4 Q 125 74 125 90 A 59.692 59.692 0 0 0 127.813 108.539 A 53.875 53.875 0 0 0 132.2 118.5 Q 139.4 131.2 151.9 138.6 A 53.437 53.437 0 0 0 176.182 145.877 A 64.886 64.886 0 0 0 180.2 146 Q 188.2 146 196.7 143.8 A 73.509 73.509 0 0 0 203.659 141.646 Q 207.174 140.352 210.126 138.789 A 43.075 43.075 0 0 0 211.2 138.2 Z M 241.8 175.4 L 327 5.2 Q 328.4 2.4 330.2 1.2 Q 332 0 334.2 0 Q 336.586 0 338.873 1.878 A 11.599 11.599 0 0 1 338.9 1.9 A 6.164 6.164 0 0 1 341.18 6.412 A 8.422 8.422 0 0 1 341.2 7 A 8.513 8.513 0 0 1 340.614 10.063 A 10.454 10.454 0 0 1 340.2 11 L 255.2 181.2 Q 254.213 183.34 252.819 184.532 A 6.506 6.506 0 0 1 252.2 185 Q 250.4 186.2 248.2 186.2 A 6.553 6.553 0 0 1 244.767 185.208 A 9.33 9.33 0 0 1 243.3 184.1 A 7.152 7.152 0 0 1 241.63 181.894 A 6.646 6.646 0 0 1 241 179 Q 241 177.2 241.8 175.4 Z M 362 127.6 L 432.6 88.4 L 433.2 98.8 L 361.6 57.8 A 11.489 11.489 0 0 1 360.044 56.567 A 8.675 8.675 0 0 1 358.8 55.1 A 5.799 5.799 0 0 1 357.953 53.012 A 8.106 8.106 0 0 1 357.8 51.4 Q 357.8 48.2 360.1 45.8 Q 362.4 43.4 365 43.6 A 6.81 6.81 0 0 1 367.45 44.069 A 8.363 8.363 0 0 1 368.2 44.4 Q 369.8 45.2 371.6 46.2 L 440.2 85.4 Q 442.4 86.6 443.7 88.6 Q 445 90.6 445 93 A 11.357 11.357 0 0 1 444.795 95.213 A 8.389 8.389 0 0 1 444 97.5 A 7.113 7.113 0 0 1 442.57 99.352 Q 441.744 100.133 440.6 100.8 L 371.2 139.6 Q 369.6 140.4 368 141.1 A 8.316 8.316 0 0 1 365.9 141.718 A 7.387 7.387 0 0 1 364.8 141.8 A 6.204 6.204 0 0 1 361.129 140.578 A 9.26 9.26 0 0 1 359.7 139.3 A 9.885 9.885 0 0 1 358.299 137.383 A 6.928 6.928 0 0 1 357.4 134 A 7.201 7.201 0 0 1 357.565 132.418 A 4.989 4.989 0 0 1 358.5 130.4 Q 359.27 129.421 360.676 128.441 A 19.565 19.565 0 0 1 362 127.6 Z M 73 140.6 L 4.6 101.2 A 11.8 11.8 0 0 1 2.865 99.98 Q 1.753 99.028 1.1 97.9 A 8.223 8.223 0 0 1 0.027 94.338 A 9.992 9.992 0 0 1 0 93.6 A 8.745 8.745 0 0 1 0.305 91.246 A 7.186 7.186 0 0 1 1.3 89.1 A 10.004 10.004 0 0 1 3.217 87.033 A 13.491 13.491 0 0 1 5 85.8 L 72.6 47.2 A 18.782 18.782 0 0 1 74.8 46.014 A 16.233 16.233 0 0 1 75.8 45.6 Q 77.4 45 78.8 45 A 6.729 6.729 0 0 1 83.279 46.707 A 9.45 9.45 0 0 1 84.1 47.5 A 9.885 9.885 0 0 1 85.502 49.417 A 6.928 6.928 0 0 1 86.4 52.8 Q 86.4 54.8 85.5 56.3 A 5.743 5.743 0 0 1 84.199 57.782 Q 83.514 58.343 82.6 58.8 L 12.6 98.6 L 11.8 88.4 L 82 128.8 A 16.6 16.6 0 0 1 83.436 129.663 Q 84.855 130.624 85.553 131.63 A 4.762 4.762 0 0 1 85.6 131.7 A 5.799 5.799 0 0 1 86.448 133.788 A 8.106 8.106 0 0 1 86.6 135.4 A 7.894 7.894 0 0 1 85.034 140.107 A 10.404 10.404 0 0 1 84.4 140.9 A 9.773 9.773 0 0 1 83.076 142.164 Q 82.245 142.811 81.386 143.12 A 4.662 4.662 0 0 1 79.8 143.4 A 6.315 6.315 0 0 1 77.813 143.066 A 8.52 8.52 0 0 1 76.5 142.5 Q 74.8 141.6 73 140.6 Z" vector-effect="non-scaling-stroke"/></g></svg>